<svg width="162" height="17" viewBox="0 0 162 17" fill="none" xmlns="http://www.w3.org/2000/svg">
<path d="M12.584 5.512C12.584 3.568 11.744 2.224 10.352 1.36C8.864 0.448 7.016 0.279999 5.456 0.279999C4.016 0.279999 2.888 0.423999 2.192 0.688C0.824 1.192 0.824 2.128 0.824 2.992V13.744C0.824 14.512 0.824 15.04 1.16 15.472C1.472 15.904 2.024 16.12 2.96 16.12C3.896 16.12 4.448 15.904 4.76 15.472C5.096 15.04 5.096 14.512 5.096 13.744V10.888C5.096 10.888 5.456 10.912 5.888 10.912C9.704 10.912 12.584 9.112 12.584 5.512ZM5.096 3.952C5.096 3.952 5.456 3.904 5.864 3.904C7.256 3.904 8.216 4.48 8.216 5.728C8.216 7.096 7.088 7.624 5.768 7.624C5.384 7.624 5.096 7.576 5.096 7.576V3.952ZM19.3483 2.704C19.3483 1.936 19.3483 1.408 19.0123 0.975999C18.6763 0.543999 18.1243 0.327999 17.1643 0.327999C16.2043 0.327999 15.6523 0.543999 15.3163 0.975999C14.9803 1.408 14.9803 1.936 14.9803 2.704V13.744C14.9803 14.512 14.9803 15.04 15.3163 15.472C15.6523 15.904 16.2043 16.12 17.1643 16.12C18.1243 16.12 18.6763 15.904 19.0123 15.472C19.3483 15.04 19.3483 14.512 19.3483 13.744V2.704ZM27.2199 7.072L33.1479 14.824C33.7719 15.64 34.4199 16.192 35.7399 16.192C37.0359 16.192 37.7799 15.616 37.7799 14.464V2.704C37.7799 1.936 37.7799 1.408 37.4439 0.975999C37.1319 0.543999 36.6039 0.327999 35.6679 0.327999C34.7319 0.327999 34.2039 0.543999 33.8919 0.975999C33.5559 1.408 33.5559 1.936 33.5559 2.704V9.064L28.2279 1.768C27.6279 0.975999 27.0039 0.327999 25.3479 0.327999C23.7399 0.327999 22.9959 0.975999 22.9959 2.008V13.744C22.9959 14.512 22.9959 15.04 23.3319 15.472C23.6439 15.904 24.1719 16.12 25.1079 16.12C26.0439 16.12 26.5719 15.904 26.8839 15.472C27.2199 15.04 27.2199 14.512 27.2199 13.744V7.072ZM40.4338 8.224C40.4338 12.88 43.6258 16.312 48.7138 16.312C53.8018 16.312 57.0898 12.88 57.0898 8.224C57.0898 3.568 53.8978 0.136 48.8098 0.136C43.7218 0.136 40.4338 3.568 40.4338 8.224ZM44.8498 8.224C44.8498 5.488 46.3858 3.904 48.7618 3.904C51.1378 3.904 52.6738 5.488 52.6738 8.224C52.6738 10.96 51.1378 12.544 48.7618 12.544C46.3858 12.544 44.8498 10.96 44.8498 8.224ZM63.9699 7.072L69.8979 14.824C70.5219 15.64 71.1699 16.192 72.4899 16.192C73.7859 16.192 74.5299 15.616 74.5299 14.464V2.704C74.5299 1.936 74.5299 1.408 74.1939 0.975999C73.8819 0.543999 73.3539 0.327999 72.4179 0.327999C71.4819 0.327999 70.9539 0.543999 70.6419 0.975999C70.3059 1.408 70.3059 1.936 70.3059 2.704V9.064L64.9779 1.768C64.3779 0.975999 63.7539 0.327999 62.0979 0.327999C60.4899 0.327999 59.7459 0.975999 59.7459 2.008V13.744C59.7459 14.512 59.7459 15.04 60.0819 15.472C60.3939 15.904 60.9219 16.12 61.8579 16.12C62.7939 16.12 63.3219 15.904 63.6339 15.472C63.9699 15.04 63.9699 14.512 63.9699 13.744V7.072ZM93.2214 14.128C93.7734 15.616 94.2774 16.12 95.7174 16.12C97.0854 16.12 97.7574 15.664 97.7574 14.8C97.7574 14.536 97.6854 14.248 97.5414 13.84L92.8134 2.2C92.3334 1 91.8294 0.327999 90.2694 0.327999C88.7334 0.327999 88.1574 0.975999 87.6534 2.2L82.7574 13.816C82.5654 14.248 82.4934 14.56 82.4934 14.848C82.4934 15.616 82.9974 16.12 84.3654 16.12C85.8774 16.12 86.4774 15.496 86.9814 14.104L87.4134 12.904H92.7654L93.2214 14.128ZM90.1014 5.56L91.5894 9.592H88.6134L90.1014 5.56ZM114.365 8.104C114.365 4.768 113.045 2.824 111.485 1.744C109.781 0.568 107.621 0.279999 105.317 0.279999C103.829 0.279999 102.653 0.399999 101.909 0.568C100.229 0.951999 99.9646 1.648 99.9646 2.944V13.576C99.9646 14.56 100.085 15.232 101.093 15.688C101.693 15.952 102.677 16.168 104.621 16.168C107.525 16.168 109.709 15.688 111.341 14.608C112.925 13.552 114.365 11.608 114.365 8.104ZM104.285 4.072C104.285 4.072 104.717 4 105.461 4C106.757 4 107.765 4.216 108.557 4.864C109.349 5.512 109.949 6.64 109.949 8.296C109.949 12.112 106.709 12.448 105.269 12.448C104.741 12.448 104.285 12.4 104.285 12.4V4.072ZM126.147 8.776L123.291 2.8C122.475 1.096 121.827 0.327999 120.051 0.327999C119.163 0.327999 118.587 0.519999 118.203 0.879999C117.699 1.336 117.627 1.888 117.531 2.92L116.451 13.552C116.403 14.008 116.379 14.32 116.379 14.536C116.379 15.664 117.099 16.12 118.443 16.12C120.027 16.12 120.579 15.472 120.675 14.368L121.227 6.688L123.939 13.24C124.299 14.08 124.731 14.728 126.003 14.728C127.275 14.728 127.731 14.08 128.091 13.24L130.803 6.712L131.331 14.368C131.427 15.52 132.051 16.12 133.611 16.12C135.075 16.12 135.723 15.592 135.723 14.584C135.723 14.392 135.699 14.032 135.675 13.744L134.619 2.92C134.523 1.936 134.451 1.456 134.067 1C133.635 0.495999 133.011 0.327999 132.219 0.327999C130.515 0.327999 129.867 1.12 129.051 2.8L126.147 8.776ZM143.145 2.704C143.145 1.936 143.145 1.408 142.809 0.975999C142.473 0.543999 141.921 0.327999 140.961 0.327999C140.001 0.327999 139.449 0.543999 139.113 0.975999C138.777 1.408 138.777 1.936 138.777 2.704V13.744C138.777 14.512 138.777 15.04 139.113 15.472C139.449 15.904 140.001 16.12 140.961 16.12C141.921 16.12 142.473 15.904 142.809 15.472C143.145 15.04 143.145 14.512 143.145 13.744V2.704ZM151.017 7.072L156.945 14.824C157.569 15.64 158.217 16.192 159.537 16.192C160.833 16.192 161.577 15.616 161.577 14.464V2.704C161.577 1.936 161.577 1.408 161.241 0.975999C160.929 0.543999 160.401 0.327999 159.465 0.327999C158.529 0.327999 158.001 0.543999 157.689 0.975999C157.353 1.408 157.353 1.936 157.353 2.704V9.064L152.025 1.768C151.425 0.975999 150.801 0.327999 149.145 0.327999C147.537 0.327999 146.793 0.975999 146.793 2.008V13.744C146.793 14.512 146.793 15.04 147.129 15.472C147.441 15.904 147.969 16.12 148.905 16.12C149.841 16.12 150.369 15.904 150.681 15.472C151.017 15.04 151.017 14.512 151.017 13.744V7.072Z" fill="#1A1A1A"/>
</svg>
