<svg width="20" height="20" viewBox="0 0 20 20" fill="none" xmlns="http://www.w3.org/2000/svg">
<path d="M14.7999 0.100006V5.11094L17.9999 3.51094V0.100006H14.7999ZM7.59994 4.90001L1.19994 8.10001V17.7C1.09393 17.6985 0.988684 17.7181 0.890309 17.7576C0.791935 17.7972 0.702398 17.8558 0.626902 17.9303C0.551406 18.0047 0.491457 18.0934 0.450539 18.1912C0.409621 18.289 0.38855 18.394 0.38855 18.5C0.38855 18.606 0.409621 18.711 0.450539 18.8088C0.491457 18.9066 0.551406 18.9953 0.626902 19.0697C0.702398 19.1442 0.791935 19.2029 0.890309 19.2424C0.988684 19.2819 1.09393 19.3015 1.19994 19.3H18.7999C18.906 19.3015 19.0112 19.2819 19.1096 19.2424C19.208 19.2029 19.2975 19.1442 19.373 19.0697C19.4485 18.9953 19.5084 18.9066 19.5493 18.8088C19.5903 18.711 19.6113 18.606 19.6113 18.5C19.6113 18.394 19.5903 18.289 19.5493 18.1912C19.5084 18.0934 19.4485 18.0047 19.373 17.9303C19.2975 17.8558 19.208 17.7972 19.1096 17.7576C19.0112 17.7181 18.906 17.6985 18.7999 17.7V4.90001L13.1999 7.70001V4.90001L7.59994 7.70001V4.90001ZM2.79994 9.70001H4.39994V11.3H2.79994V9.70001ZM5.99994 9.70001H7.59994V11.3H5.99994V9.70001ZM9.19994 9.70001H10.7999V11.3H9.19994V9.70001ZM12.3999 9.70001H13.9999V11.3H12.3999V9.70001ZM15.5999 9.70001H17.1999V11.3H15.5999V9.70001ZM2.79994 12.9H4.39994V14.5H2.79994V12.9ZM5.99994 12.9H7.59994V14.5H5.99994V12.9ZM9.19994 12.9H10.7999V14.5H9.19994V12.9ZM12.3999 12.9H13.9999V14.5H12.3999V12.9ZM15.5999 12.9H17.1999V14.5H15.5999V12.9ZM2.79994 16.1H4.39994V17.7H2.79994V16.1ZM5.99994 16.1H7.59994V17.7H5.99994V16.1ZM9.19994 16.1H10.7999V17.7H9.19994V16.1ZM12.3999 16.1H13.9999V17.7H12.3999V16.1ZM15.5999 16.1H17.1999V17.7H15.5999V16.1Z" fill="#282C31"/>
</svg>
